<svg xmlns="http://www.w3.org/2000/svg" xmlns:xlink="http://www.w3.org/1999/xlink"><symbol id="instagram_icon" viewBox="0 0 29 29">
<circle cx="14.625" cy="14.5703" r="13.875" fill="#2C2C2C"/>
</symbol><symbol id="logo" viewBox="0 0 28 42">
<path d="M0 13.3333V26.6667L14 14.3333V0L0 13.3333Z" fill="white"/>
<path d="M28 14.6667V26.6667L14 14H28V14.6667Z" fill="white"/>
<path d="M28 26.6667L14 39.3684L14 13.965L28 26.6667Z" fill="#FEB938"/>
<path d="M6.411e-07 26.6667L14 39.3684L14 13.965L6.411e-07 26.6667Z" fill="#FF970A"/>
</symbol><symbol id="maximize_button" viewBox="0 0 15 14">
<path d="M4.76651 0.73291V2.80883C4.76651 3.17588 4.6207 3.52789 4.36116 3.78743C4.10162 4.04697 3.74961 4.19278 3.38256 4.19278H1.30664M13.7622 4.19278H11.6863C11.3192 4.19278 10.9672 4.04697 10.7077 3.78743C10.4481 3.52789 10.3023 3.17588 10.3023 2.80883V0.73291M10.3023 13.1884V11.1125C10.3023 10.7455 10.4481 10.3935 10.7077 10.1339C10.9672 9.87438 11.3192 9.72857 11.6863 9.72857H13.7622M1.30664 9.72857H3.38256C3.74961 9.72857 4.10162 9.87438 4.36116 10.1339C4.6207 10.3935 4.76651 10.7455 4.76651 11.1125V13.1884" stroke="#4C4C4C" stroke-width="1.30726" stroke-linecap="round"/>
</symbol><symbol id="mute_button" viewBox="0 0 19 15">
<path d="M8.81247 2.62648C8.81247 1.87618 7.92743 1.47657 7.36463 1.97276L4.66498 4.35286C4.50579 4.4932 4.30086 4.57064 4.08864 4.57064H1.77385C1.29253 4.57064 0.902344 4.96082 0.902344 5.44214V9.51066C0.902344 9.99198 1.29253 10.3822 1.77385 10.3822H4.08864C4.30086 10.3822 4.50579 10.4596 4.66498 10.5999L7.36463 12.98C7.92743 13.4762 8.81247 13.0766 8.81247 12.3263V2.62648Z" stroke="#4C4C4C" stroke-width="1.30726" stroke-linecap="round"/>
<path d="M17.9997 4.65088L12.3496 10.301" stroke="#4C4C4C" stroke-width="1.30726" stroke-linecap="round"/>
<path d="M12.3496 4.65088L17.9997 10.301" stroke="#4C4C4C" stroke-width="1.30726" stroke-linecap="round"/>
</symbol><symbol id="play_button" viewBox="0 0 16 16">
<path d="M7.89837 14.7967C11.7082 14.7967 14.7967 11.7082 14.7967 7.89837C14.7967 4.08851 11.7082 1 7.89837 1C4.08851 1 1 4.08851 1 7.89837C1 11.7082 4.08851 14.7967 7.89837 14.7967Z" stroke="#4C4C4C" stroke-width="1.30726" stroke-linecap="round"/>
</symbol><symbol id="telegram_icon" viewBox="0 0 29 29">
<circle cx="14.873" cy="14.5703" r="13.875" fill="#2C2C2C"/>
</symbol><symbol id="vk_icon" viewBox="0 0 28 29">
<circle cx="14.125" cy="14.5703" r="13.875" fill="#2C2C2C"/>
</symbol><symbol id="youtube_icon" viewBox="0 0 28 29">
<circle cx="13.875" cy="14.5703" r="13.875" fill="#2C2C2C"/>
</symbol></svg>