<svg xmlns="http://www.w3.org/2000/svg" xmlns:xlink="http://www.w3.org/1999/xlink"><symbol id="instagram_icon" viewBox="0 0 29 29"><circle cx="14.625" cy="14.57" r="13.875" fill="#2C2C2C"/></symbol><symbol id="logo" viewBox="0 0 28 42"><path d="M0 13.333v13.334l14-12.334V0L0 13.333zm28 1.334v12L14 14h14v.667z" fill="#fff"/><path d="M28 26.667L14 39.368V13.965l14 12.702z" fill="#FEB938"/><path d="M0 26.667l14 12.701V13.965L0 26.667z" fill="#FF970A"/></symbol><symbol id="maximize_button" viewBox="0 0 15 14"><path d="M4.767.733v2.076a1.384 1.384 0 01-1.384 1.384H1.307m12.455 0h-2.076a1.384 1.384 0 01-1.384-1.384V.733m0 12.455v-2.075a1.384 1.384 0 011.384-1.384h2.076m-12.455 0h2.076a1.384 1.384 0 011.384 1.384v2.075" stroke="#4C4C4C" stroke-width="1.307" stroke-linecap="round"/></symbol><symbol id="mute_button" viewBox="0 0 19 15"><path d="M8.812 2.626a.872.872 0 00-1.447-.653l-2.7 2.38a.872.872 0 01-.576.218H1.774a.872.872 0 00-.872.871v4.069c0 .481.39.871.872.871h2.315c.212 0 .417.078.576.218l2.7 2.38a.871.871 0 001.447-.654v-9.7zM18 4.65l-5.65 5.651m0-5.651L18 10.302" stroke="#4C4C4C" stroke-width="1.307" stroke-linecap="round"/></symbol><symbol id="play_button" viewBox="0 0 16 16"><path d="M7.898 14.797A6.898 6.898 0 107.898 1a6.898 6.898 0 000 13.797z" stroke="#4C4C4C" stroke-width="1.307" stroke-linecap="round"/><path d="M6.519 5.823c0-.292.326-.467.57-.305L10.2 7.593a.366.366 0 010 .61l-3.112 2.075a.366.366 0 01-.57-.305v-4.15z" stroke="#4C4C4C" stroke-width="1.307" stroke-linecap="round"/></symbol><symbol id="play_white_icon" viewBox="0 0 18 23"><path d="M16.97 10.2a1.648 1.648 0 010 2.736L2.962 22.332c-1.094.734-2.565-.05-2.565-1.369V2.173C.397.854 1.867.07 2.962.803L16.97 10.2z" fill="#FAFAFA"/></symbol><symbol id="telegram_icon" viewBox="0 0 29 29"><circle cx="14.873" cy="14.57" r="13.875" fill="#2C2C2C"/></symbol><symbol id="vk_icon" viewBox="0 0 28 29"><circle cx="14.125" cy="14.57" r="13.875" fill="#2C2C2C"/></symbol><symbol id="youtube_icon" viewBox="0 0 28 29"><circle cx="13.875" cy="14.57" r="13.875" fill="#2C2C2C"/></symbol></svg>